#!OML:ASF H:\Terrain\Patient Classification 1\Animal1\Tuesday\Animal1.ASF
:FULLY-SPECIFIED
:DEGREES
1533
root 11.6448 16.1813 -9.51843 7.71642 -9.43182 -1.33249
lowerback -0.710245 -0.276989 -0.509084
upperback -6.54027 -0.338405 1.22408
thorax -6.37764 -0.10758 1.5761
lowerneck -10.0008 -0.401488 -3.55179
upperneck 22.5466 -1.74588 7.84583
head 8.75978 -0.341175 3.08375
rclavicle 2.36057e-015 -9.83984e-015
rhumerus 6.57898 61.3778 -13.46
rradius 127.453
rwrist -12.7274
rhand -30.4508 51.3474
rfingers 7.12502
rthumb -3.7528 21.4007
lclavicle 2.36057e-015 -9.83984e-015
lhumerus -25.6095 -48.489 47.8417
lradius 124.383
lwrist -18.1959
lhand -0.825406 30.347
lfingers 7.12502
lthumb 24.7995 58.759
rfemur -18.4845 6.31936 29.0212
rtibia 34.9503
rfoot -14.684 -29.8424
rtoes 8.96428
lfemur -37.5495 -6.41425 -12.3399
ltibia 72.4241
lfoot -0.933334 2.40916
ltoes 16.842
1534
root 11.6968 16.1846 -9.60557 7.60606 -9.64428 -1.42353
lowerback -0.916547 -0.250635 -0.423914
upperback -6.51642 -0.29835 1.28564
thorax -6.23482 -0.091647 1.58874
lowerneck -10.2733 -0.426816 -3.46418
upperneck 22.9207 -1.78318 7.69424
head 8.94056 -0.357393 3.02271
rclavicle -1.35422e-014 -5.56597e-015
rhumerus 14.3089 64.9855 -2.89574
rradius 127.687
rwrist -12.3893
rhand -30.9146 52.2252
rfingers 7.12502
rthumb -4.20069 22.2868
lclavicle -1.35422e-014 -5.56597e-015
lhumerus -23.0879 -53.7999 43.6873
lradius 124.764
lwrist -17.8959
lhand -1.32048 29.8813
lfingers 7.12502
lthumb 24.325 58.3578
rfemur -18.8308 6.4291 28.9158
rtibia 35.0453
rfoot -14.4385 -29.6717
rtoes 8.20353
lfemur -35.9933 -6.08343 -12.0626
ltibia 72.7223
lfoot -0.161266 1.49636
ltoes 19.5343
1535
root 11.7497 16.1907 -9.69311 7.40583 -9.83778 -1.53206
lowerback -0.975108 -0.264171 -0.315487
upperback -6.47516 -0.310454 1.36417
thorax -6.15696 -0.101903 1.60942
lowerneck -10.4329 -0.37438 -3.30649
upperneck 23.1086 -1.71995 7.5628
head 9.02983 -0.322732 2.96204
rclavicle -2.53202e-014 3.97569e-015
rhumerus 23.4627 67.5972 9.06252
rradius 128.179
rwrist -12.7849
rhand -29.9871 52.2807
rfingers 7.12502
rthumb -3.30503 22.3266
lclavicle -2.53202e-014 3.97569e-015
lhumerus -19.952 -58.4302 38.6273
lradius 125.409
lwrist -17.4067
lhand -1.28821 29.7925
lfingers 7.12502
lthumb 24.3559 58.2648
rfemur -19.0341 6.49926 28.8492
rtibia 35.0609
rfoot -13.5413 -29.6544
rtoes 6.24769
lfemur -34.2724 -5.93736 -11.7991
ltibia 72.8632
lfoot 0.89553 0.687517
ltoes 20.4701
1536
root 11.8 16.2066 -9.78043 7.14933 -10.0551 -1.37473
lowerback -0.786514 -0.36334 -0.596946
upperback -6.61068 -0.445684 1.46029
thorax -6.40419 -0.148577 1.87691
lowerneck -10.1863 -0.179728 -3.13983
upperneck 23.1947 -1.44539 7.37455
head 8.99363 -0.203158 2.89782
rclavicle 2.11209e-014 -7.7526e-015
rhumerus 34.1082 69.3902 22.4299
rradius 128.727
rwrist -13.0955
rhand -29.3545 52.7056
rfingers 7.12502
rthumb -2.69408 22.7429
lclavicle 2.11209e-014 -7.7526e-015
lhumerus -17.4878 -63.249 33.8843
lradius 126.207
lwrist -18.8324
lhand -2.03581 30.3261
lfingers 7.12502
lthumb 23.639 58.8928
rfemur -19.1988 6.56094 28.5057
rtibia 35.0508
rfoot -12.6273 -29.6398
rtoes 4.52635
lfemur -32.4764 -5.94443 -11.8392
ltibia 72.7724
lfoot 2.19125 -0.0182855
ltoes 20.9214
1537
root 11.8524 16.2247 -9.8649 6.96845 -10.3244 -1.23035
lowerback -1.27001 -0.389451 -0.685637
upperback -6.36517 -0.484562 1.46463
thorax -5.86268 -0.168721 1.92454
lowerneck -10.2637 -0.0708591 -3.29339
upperneck 23.1233 -1.2854 7.49897
head 8.97441 -0.127936 2.98291
rclavicle 5.55106e-014 1.68967e-014
rhumerus 42.9661 69.8633 33.9603
rradius 129.12
rwrist -13.5186
rhand -28.0725 53.1543
rfingers 7.12502
rthumb -1.45593 23.1795
lclavicle 5.55106e-014 1.68967e-014
lhumerus -12.3948 -66.4507 26.7395
lradius 127.122
lwrist -18.5262
lhand -0.668124 30.3845
lfingers 7.12502
lthumb 24.9503 58.7757
rfemur -19.4503 6.68658 28.1444
rtibia 35.0567
rfoot -12.0474 -29.5073
rtoes 4.19657
lfemur -30.7428 -5.87855 -11.8363
ltibia 72.4498
lfoot 3.29731 -0.776677
ltoes 22.2633
1538
root 11.9105 16.2319 -9.94318 6.7279 -10.5822 -1.05386
lowerback -1.73028 -0.485349 -0.880166
upperback -6.16708 -0.610757 1.62192
thorax -5.38201 -0.222791 2.19354
lowerneck -10.0685 0.0241522 -3.67966
upperneck 22.9167 -1.0603 7.47197
head 8.85216 -0.0640928 3.05687
rclavicle 1.799e-014 1.78906e-015
rhumerus 50.5937 69.8941 44.2928
rradius 129.426
rwrist -13.2833
rhand -26.4145 53.162
rfingers 7.12502
rthumb 0.145373 23.1824
lclavicle 1.799e-014 1.78906e-015
lhumerus -9.18602 -69.9807 21.1562
lradius 128.117
lwrist -20.7855
lhand -1.40136 30.9794
lfingers 7.12502
lthumb 24.2475 59.4662
rfemur -19.6169 6.82081 27.7328
rtibia 35.0758
rfoot -11.5378 -29.3369
rtoes 3.9936
lfemur -28.7197 -5.85952 -11.8772
ltibia 71.8674
lfoot 4.16181 -1.7437
ltoes 24.5026
1539
root 11.9708 16.2339 -10.0219 6.51658 -10.8055 -0.895286
lowerback -2.18085 -0.648294 -1.07851
upperback -5.91668 -0.825098 1.79363
thorax -4.84761 -0.323086 2.47854
lowerneck -9.97486 0.157191 -3.77488
upperneck 22.5684 -0.781511 7.2323
head 8.69692 0.0301062 3.01002
rclavicle -2.16675e-014 7.55382e-015
rhumerus 55.3553 69.4552 51.4675
rradius 129.625
rwrist -12.6321
rhand -25.9407 52.944
rfingers 7.12502
rthumb 0.603048 22.9651
lclavicle -2.16675e-014 7.55382e-015
lhumerus -6.23126 -72.2479 15.7685
lradius 129.181
lwrist -21.6447
lhand -1.01801 29.4372
lfingers 7.12502
lthumb 24.6149 57.8745
rfemur -19.7912 6.87459 27.3466
rtibia 35.0601
rfoot -10.809 -29.1717
rtoes 3.01973
lfemur -26.59 -5.96808 -11.9555
ltibia 71.0572
lfoot 5.40758 -2.85743
ltoes 24.6443
1540
root 12.0308 16.2396 -10.1033 6.42197 -11.0506 -1.01994
lowerback -2.51927 -0.80904 -0.942326
upperback -5.66528 -1.03639 1.91307
thorax -4.38072 -0.438734 2.51947
lowerneck -10.3325 0.34968 -3.68772
upperneck 22.4768 -0.514975 7.22996
head 8.71576 0.168093 3.02242
rclavicle 1.38155e-014 5.96354e-015
rhumerus 56.8236 68.7768 54.7444
rradius 129.745
rwrist -12.5062
rhand -25.4229 52.6603
rfingers 7.12502
rthumb 1.10317 22.6834
lclavicle 1.38155e-014 5.96354e-015
lhumerus -3.5763 -73.7234 10.4276
lradius 130.319
lwrist -22.003
lhand -0.66227 28.6591
lfingers 7.12502
lthumb 24.9559 57.0494
rfemur -20.0399 6.95011 27.2608
rtibia 35.0523
rfoot -10.2531 -29.0093
rtoes 2.35394
lfemur -24.6789 -6.09005 -11.7314
ltibia 70.1843
lfoot 6.6082 -3.85093
ltoes 24.0456
1541
root 12.0885 16.2495 -10.1874 6.40471 -11.2936 -1.18837
lowerback -2.78618 -0.969828 -0.788113
upperback -5.47107 -1.25101 1.98097
thorax -4.01699 -0.556124 2.49637
lowerneck -10.5922 0.523503 -3.46654
upperneck 22.2418 -0.294159 7.2143
head 8.67094 0.291564 2.99855
rclavicle -6.60959e-015 -9.14409e-015
rhumerus 55.8187 68.1497 55.0395
rradius 129.901
rwrist -12.5174
rhand -22.0034 54.3555
rfingers 7.12502
rthumb 4.40545 24.4213
lclavicle -6.60959e-015 -9.14409e-015
lhumerus -2.19151 -74.509 6.20612
lradius 131.545
lwrist -21.7771
lhand 0.0539322 28.1611
lfingers 7.12502
lthumb 25.642 56.4544
rfemur -20.3382 7.14895 27.2204
rtibia 34.994
rfoot -9.86751 -28.8549
rtoes 2.48104
lfemur -22.9571 -6.2821 -11.418
ltibia 69.2074
lfoot 7.32001 -4.72358
ltoes 24.3189
